
<svg xmlns="http://www.w3.org/2000/svg" viewBox="0 0 100 100">
  <circle cx="50" cy="50" r="45" fill="#D70A53"/>
  <path d="M50,10 C28.9,10 12,26.9 12,48 C12,69.1 28.9,86 50,86 C71.1,86 88,69.1 88,48 C88,26.9 71.1,10 50,10 Z M45.5,19.2 C46.8,19.1 48.1,19.5 49,20.4 C50,21.4 50.1,22.7 49.5,23.9 C48.9,25.1 47.5,25.8 46.1,25.4 C44.8,25 43.7,23.8 43.5,22.4 C43.3,21 43.9,19.5 45.1,18.8 C45.3,18.7 45.4,18.7 45.5,18.7 L45.5,19.2 Z M62.8,27.5 C64.4,28.7 65.3,30.7 65.3,32.7 C65.3,35.7 63.2,38.4 60.4,39.1 C57.5,39.8 54.2,38.3 52.9,35.6 C51.5,32.9 52.4,29.7 54.9,28 C57.5,26.2 60.7,26.1 62.8,27.5 Z M34.7,64.8 C32.6,63.5 31.5,61.6 30.8,59.2 C30.1,56.5 30.5,53.4 31.7,50.9 C33.8,46.2 38.7,44.4 43.4,46.4 C48.2,48.5 50,54.1 47.9,58.8 C45.8,63.6 40.9,65.4 36.2,63.3 C35.7,63.1 35.2,63 34.7,62.8 L34.7,64.8 Z M67.9,72.7 C67.5,73 67,73.3 66.6,73.5 C65.8,73.8 65,74 64.1,74.2 C63.3,74.3 62.5,74.3 61.7,74.2 C60.9,74.1 60.1,73.9 59.4,73.6 C58.6,73.3 57.9,72.9 57.2,72.4 C56.5,72 55.9,71.4 55.4,70.8 C54.9,70.1 54.5,69.5 54.1,68.7 C53.8,68 53.5,67.2 53.3,66.4 C53.2,65.6 53.1,64.8 53.2,64 C53.3,63.2 53.5,62.4 53.8,61.7 C54.1,60.9 54.5,60.2 55,59.5 C55.5,58.8 56.1,58.2 56.7,57.7 C57.4,57.2 58.1,56.8 58.9,56.4 C59.6,56.1 60.4,55.8 61.2,55.6 C62,55.5 62.8,55.4 63.6,55.5 C64.4,55.6 65.2,55.8 65.9,56.1 C66.7,56.4 67.4,56.8 68.1,57.3 C68.8,57.8 69.4,58.4 69.9,59 C70.4,59.7 70.8,60.4 71.2,61.2 C71.5,61.9 71.8,62.7 72,63.5 C72.1,64.3 72.2,65.1 72.1,65.9 C72,66.7 71.8,67.5 71.5,68.2 C71.2,69 70.8,69.7 70.3,70.4 C69.8,71.1 69.2,71.7 68.6,72.2 C68.4,72.4 68.2,72.5 68,72.7 L67.9,72.7 Z" fill="#FFFFFF"/>
</svg>
