
<svg xmlns="http://www.w3.org/2000/svg" viewBox="0 0 100 100">
  <circle cx="50" cy="50" r="45" fill="#FFF"/>
  <path d="M79.65,43.48c-6.11-9.3-7.4-30.81-23-35.81C43.9,12,25.59,16,21.28,37.08c-5.36,14.14-9.61,32.26,9.19,39.77,1.66,1.38,4.85,3.32,2.61,5.59-5.21,3.1-3.49,8.72-1.2,9.59,13.57,5.16,39.91,5.51,39.91-15.69,0-15.69-24.22-24.22-9.59-24.22,5.61,9.04,6.27,23.67,17.45,18.38,5.7-2.7,6.65-16.44-.01-26.99Z" fill="#F0D042"/>
  <ellipse cx="37.31" cy="36.31" rx="4.46" ry="6.31" fill="#000"/>
  <ellipse cx="63.08" cy="36.31" rx="4.46" ry="6.31" fill="#000"/>
  <path d="M50.6,47.69c-4.34,0-8.67,1.19-12.44,3.56-1.96,1.23-3.36,2.39-4.3,3.86-.94,1.47-1.5,3.33-1.04,5.42.29,1.3.99,2.36,1.92,3.15.94.79,2.09,1.32,3.3,1.58,2.4.51,4.99.13,6.61-.78,2.01-1.13,3.2-2.58,4.03-3.62.77-.96,1.28-1.7,1.86-1.91.93-.33,2.36.06,4.24.86,1.88.8,4.25,2,6.8,3.19,2.55,1.18,5.28,2.36,7.71,2.91,1.22.28,2.38.41,3.42.25,1.04-.16,2.03-.66,2.71-1.72.92-1.41.71-3.28.05-4.9-.66-1.62-1.76-3.07-2.95-4.29-2.38-2.44-5.32-4.11-8.32-5.23-3.01-1.12-6.13-1.72-9.2-1.87-1.13-.06-2.27-.06-3.41-.06Z" fill="#000"/>
</svg>
